HIERARCHY
ROOT Hips
{
	OFFSET 0.000000 100.481300 0.000000
	CHANNELS 6 Xposition Yposition Zposition Xrotation Yrotation Zrotation 
	JOINT Spine
	{
		OFFSET -0.279200 12.230698 -2.892100
		CHANNELS 3 Xrotation Yrotation Zrotation
		JOINT Spine1
		{
			OFFSET -0.232667 10.192268 -1.242267
			CHANNELS 3 Xrotation Yrotation Zrotation
			JOINT Spine1_split
			{
				OFFSET -0.232667 10.192268 -1.242267
				CHANNELS 3 Xrotation Yrotation Zrotation
				JOINT Spine2
				{
					OFFSET -0.232667 10.192268 -1.242267
					CHANNELS 3 Xrotation Yrotation Zrotation
					JOINT Neck
					{
						OFFSET -0.418800 17.814194 8.416900
						CHANNELS 3 Xrotation Yrotation Zrotation
						JOINT Head
						{
							OFFSET 0.000000 7.031097 3.806800
							CHANNELS 3 Xrotation Yrotation Zrotation
							JOINT HeadTop_End
							{
								OFFSET 0.000000 24.646606 12.978600
								CHANNELS 3 Xrotation Yrotation Zrotation
								End Site
								{
									OFFSET 0.000000 0.000000 0.000000
								}
							}
						}
					}
					JOINT LeftShoulder
					{
						OFFSET 8.476499 7.247704 -3.868750
						CHANNELS 3 Xrotation Yrotation Zrotation
						JOINT LeftShoulder_split
						{
							OFFSET 8.476499 7.247704 -3.868750
							CHANNELS 3 Xrotation Yrotation Zrotation
							JOINT LeftArm
							{
								OFFSET 9.308998 -2.777710 0.208600
								CHANNELS 3 Xrotation Yrotation Zrotation
								JOINT LeftForeArm
								{
									OFFSET 29.972298 0.000000 0.000000
									CHANNELS 3 Xrotation Yrotation Zrotation
									JOINT LeftHand
									{
										OFFSET 26.026505 0.000000 0.000000
										CHANNELS 3 Xrotation Yrotation Zrotation
										JOINT LeftHandThumb1
										{
											OFFSET 12.240501 -7.147949 9.207150
											CHANNELS 3 Xrotation Yrotation Zrotation
											JOINT LeftHandThumb2
											{
												OFFSET 4.138618 -2.389435 2.389433
												CHANNELS 3 Xrotation Yrotation Zrotation
												JOINT LeftHandThumb3
												{
													OFFSET 2.726913 -1.574387 1.574386
													CHANNELS 3 Xrotation Yrotation Zrotation
													JOINT LeftHandThumb4
													{
														OFFSET 3.941010 -2.275345 2.275342
														CHANNELS 3 Xrotation Yrotation Zrotation
														End Site
														{
															OFFSET 0.000000 0.000000 0.000000
														}
													}
												}
											}
										}
										JOINT LeftHandIndex1
										{
											OFFSET 24.424698 -1.985611 5.953459
											CHANNELS 3 Xrotation Yrotation Zrotation
											JOINT LeftHandIndex2
											{
												OFFSET 6.426697 0.000000 0.000000
												CHANNELS 3 Xrotation Yrotation Zrotation
												JOINT LeftHandIndex3
												{
													OFFSET 5.337898 0.000000 0.000000
													CHANNELS 3 Xrotation Yrotation Zrotation
													JOINT LeftHandIndex4
													{
														OFFSET 4.409401 0.000000 0.000000
														CHANNELS 3 Xrotation Yrotation Zrotation
														End Site
														{
															OFFSET 0.000000 0.000000 0.000000
														}
													}
												}
											}
										}
										JOINT LeftHandMiddle1
										{
											OFFSET 23.810104 0.000000 0.000000
											CHANNELS 3 Xrotation Yrotation Zrotation
											JOINT LeftHandMiddle2
											{
												OFFSET 7.176498 0.000000 0.000000
												CHANNELS 3 Xrotation Yrotation Zrotation
												JOINT LeftHandMiddle3
												{
													OFFSET 6.774902 0.000000 0.000000
													CHANNELS 3 Xrotation Yrotation Zrotation
													JOINT LeftHandMiddle4
													{
														OFFSET 5.403328 0.000000 0.000000
														CHANNELS 3 Xrotation Yrotation Zrotation
														End Site
														{
															OFFSET 0.000000 0.000000 0.000000
														}
													}
												}
											}
										}
										JOINT LeftHandRing1
										{
											OFFSET 22.908401 -0.839279 -6.020567
											CHANNELS 3 Xrotation Yrotation Zrotation
											JOINT LeftHandRing2
											{
												OFFSET 6.337502 0.000000 0.000000
												CHANNELS 3 Xrotation Yrotation Zrotation
												JOINT LeftHandRing3
												{
													OFFSET 5.779297 0.000000 0.000000
													CHANNELS 3 Xrotation Yrotation Zrotation
													JOINT LeftHandRing4
													{
														OFFSET 4.965698 0.000000 0.000000
														CHANNELS 3 Xrotation Yrotation Zrotation
														End Site
														{
															OFFSET 0.000000 0.000000 0.000000
														}
													}
												}
											}
										}
										JOINT LeftHandPinky1
										{
											OFFSET 20.037003 -1.530319 -10.950146
											CHANNELS 3 Xrotation Yrotation Zrotation
											JOINT LeftHandPinky2
											{
												OFFSET 5.254700 0.000000 0.000000
												CHANNELS 3 Xrotation Yrotation Zrotation
												JOINT LeftHandPinky3
												{
													OFFSET 4.810204 0.000000 0.000000
													CHANNELS 3 Xrotation Yrotation Zrotation
													JOINT LeftHandPinky4
													{
														OFFSET 3.647202 0.000000 0.000000
														CHANNELS 3 Xrotation Yrotation Zrotation
														End Site
														{
															OFFSET 0.000000 0.000000 0.000000
														}
													}
												}
											}
										}
									}
								}
							}
						}
					}
					JOINT RightShoulder
					{
						OFFSET -7.570500 7.247704 -3.868750
						CHANNELS 3 Xrotation Yrotation Zrotation
						JOINT RightShoulder_split
						{
							OFFSET -7.570500 7.247704 -3.868750
							CHANNELS 3 Xrotation Yrotation Zrotation
							JOINT RightArm
							{
								OFFSET -9.308998 -2.777710 0.208500
								CHANNELS 3 Xrotation Yrotation Zrotation
								JOINT RightForeArm
								{
									OFFSET -29.972300 0.000000 0.000000
									CHANNELS 3 Xrotation Yrotation Zrotation
									JOINT RightHand
									{
										OFFSET -26.026505 0.000000 0.000000
										CHANNELS 3 Xrotation Yrotation Zrotation
										JOINT RightHandThumb1
										{
											OFFSET -12.240601 -7.148026 9.207092
											CHANNELS 3 Xrotation Yrotation Zrotation
											JOINT RightHandThumb2
											{
												OFFSET -4.138618 -2.389435 2.389433
												CHANNELS 3 Xrotation Yrotation Zrotation
												JOINT RightHandThumb3
												{
													OFFSET -2.726974 -1.574417 1.574421
													CHANNELS 3 Xrotation Yrotation Zrotation
													JOINT RightHandThumb4
													{
														OFFSET -3.941010 -2.275345 2.275343
														CHANNELS 3 Xrotation Yrotation Zrotation
														End Site
														{
															OFFSET 0.000000 0.000000 0.000000
														}
													}
												}
											}
										}
										JOINT RightHandIndex1
										{
											OFFSET -24.424698 -1.985657 5.953444
											CHANNELS 3 Xrotation Yrotation Zrotation
											JOINT RightHandIndex2
											{
												OFFSET -6.426697 0.000000 0.000000
												CHANNELS 3 Xrotation Yrotation Zrotation
												JOINT RightHandIndex3
												{
													OFFSET -5.337898 0.000000 0.000000
													CHANNELS 3 Xrotation Yrotation Zrotation
													JOINT RightHandIndex4
													{
														OFFSET -4.409401 0.000000 0.000000
														CHANNELS 3 Xrotation Yrotation Zrotation
														End Site
														{
															OFFSET 0.000000 0.000000 0.000000
														}
													}
												}
											}
										}
										JOINT RightHandMiddle1
										{
											OFFSET -23.810097 0.000000 0.000000
											CHANNELS 3 Xrotation Yrotation Zrotation
											JOINT RightHandMiddle2
											{
												OFFSET -7.176498 0.000000 0.000000
												CHANNELS 3 Xrotation Yrotation Zrotation
												JOINT RightHandMiddle3
												{
													OFFSET -6.774902 0.000000 0.000000
													CHANNELS 3 Xrotation Yrotation Zrotation
													JOINT RightHandMiddle4
													{
														OFFSET -5.403328 0.000000 0.000000
														CHANNELS 3 Xrotation Yrotation Zrotation
														End Site
														{
															OFFSET 0.000000 0.000000 0.000000
														}
													}
												}
											}
										}
										JOINT RightHandRing1
										{
											OFFSET -22.908302 -0.839325 -6.020576
											CHANNELS 3 Xrotation Yrotation Zrotation
											JOINT RightHandRing2
											{
												OFFSET -6.337502 0.000000 0.000000
												CHANNELS 3 Xrotation Yrotation Zrotation
												JOINT RightHandRing3
												{
													OFFSET -5.779297 0.000000 0.000000
													CHANNELS 3 Xrotation Yrotation Zrotation
													JOINT RightHandRing4
													{
														OFFSET -4.965698 0.000000 0.000000
														CHANNELS 3 Xrotation Yrotation Zrotation
														End Site
														{
															OFFSET 0.000000 0.000000 0.000000
														}
													}
												}
											}
										}
										JOINT RightHandPinky1
										{
											OFFSET -20.037003 -1.530334 -10.950259
											CHANNELS 3 Xrotation Yrotation Zrotation
											JOINT RightHandPinky2
											{
												OFFSET -5.254700 0.000000 0.000000
												CHANNELS 3 Xrotation Yrotation Zrotation
												JOINT RightHandPinky3
												{
													OFFSET -4.810204 0.000000 0.000000
													CHANNELS 3 Xrotation Yrotation Zrotation
													JOINT RightHandPinky4
													{
														OFFSET -3.647202 0.000000 0.000000
														CHANNELS 3 Xrotation Yrotation Zrotation
														End Site
														{
															OFFSET 0.000000 0.000000 0.000000
														}
													}
												}
											}
										}
									}
								}
							}
						}
					}
				}
			}
		}
	}
	JOINT LeftUpLeg
	{
		OFFSET 15.427100 -6.655098 0.678600
		CHANNELS 3 Xrotation Yrotation Zrotation
		JOINT LeftLeg
		{
			OFFSET 4.081073 -39.591068 13.024000
			CHANNELS 3 Xrotation Yrotation Zrotation
			JOINT LeftFoot
			{
				OFFSET -4.081074 -37.707932 -15.979700
				CHANNELS 3 Xrotation Yrotation Zrotation
				JOINT LeftToeBase
				{
					OFFSET 5.346399 -15.068900 20.645000
					CHANNELS 3 Xrotation Yrotation Zrotation
					JOINT LeftToe_End
					{
						OFFSET 2.754700 0.931300 11.300900
						CHANNELS 3 Xrotation Yrotation Zrotation
						End Site
						{
							OFFSET 0.000000 0.000000 0.000000
						}
					}
				}
			}
		}
	}
	JOINT RightUpLeg
	{
		OFFSET -15.569500 -6.655098 0.678600
		CHANNELS 3 Xrotation Yrotation Zrotation
		JOINT RightLeg
		{
			OFFSET -4.081825 -39.591045 13.023800
			CHANNELS 3 Xrotation Yrotation Zrotation
			JOINT RightFoot
			{
				OFFSET 4.081824 -37.707954 -15.979600
				CHANNELS 3 Xrotation Yrotation Zrotation
				JOINT RightToeBase
				{
					OFFSET -5.346400 -15.068900 20.645000
					CHANNELS 3 Xrotation Yrotation Zrotation
					JOINT RightToe_End
					{
						OFFSET -2.754700 0.931300 11.300900
						CHANNELS 3 Xrotation Yrotation Zrotation
						End Site
						{
							OFFSET 0.000000 0.000000 0.000000
						}
					}
				}
			}
		}
	}
}
MOTION
Frames: 4
Frame Time: 0.016667
-0.307301 86.793808 45.524113 10.279839 -5.137781 0.214303 5.320127 0.077004 -1.351975 2.188031 -0.566219 -0.158979 0.000000 0.000000 0.000000 0.272734 -0.972615 0.898067 12.585924 -0.308784 2.188553 -30.323024 0.842205 -5.312840 0.000000 0.000001 0.000000 5.876925 -7.979693 20.002223 0.000000 0.000000 0.000000 -34.254679 -16.965572 -14.997630 -0.000000 -124.447549 0.000001 -1.398398 -13.673595 39.579512 28.620000 -24.676685 7.683747 13.196505 30.099370 -41.312044 -17.405870 27.733893 25.698887 0.000001 0.000000 0.000000 3.052571 -0.236013 -15.996347 0.004174 0.221371 -2.160732 1.078587 3.388949 -35.300275 -0.000000 0.000000 0.000000 0.872753 5.500593 -21.877303 0.087926 1.012249 -9.928497 0.940784 3.185746 -32.897538 0.000000 -0.000001 0.000002 1.471999 7.478239 -18.525766 0.300206 1.853018 -18.403441 0.758646 2.885158 -29.459036 -0.000001 -0.000001 -0.000001 -1.697505 15.557742 -19.134813 0.370823 2.052996 -20.475326 0.356879 2.015279 -20.082561 -0.000000 0.000001 0.000002 -1.569642 -8.377660 -14.965267 0.000000 0.000000 0.000000 -29.516126 36.059929 26.253335 0.000015 121.356342 -0.000013 1.490557 12.183664 -43.921190 27.217047 26.328197 -7.221387 12.620675 -31.646408 39.727727 -15.731365 -33.858142 -24.893299 -0.000000 -0.000002 0.000005 3.344718 0.259450 17.143657 0.003482 -0.180147 2.211970 0.860065 -2.698502 35.350744 0.000000 0.000002 -0.000000 0.921711 -5.175102 25.205481 0.070801 -0.809847 9.992544 0.770283 -2.567392 33.396545 0.000000 -0.000002 -0.000000 1.333961 -6.500125 20.818242 0.269516 -1.562846 19.567770 0.649071 -2.373512 30.584945 0.000000 -0.000001 -0.000002 -2.139005 -15.198740 21.741674 0.300654 -1.647794 20.679357 0.227508 -1.439236 17.964103 -0.000001 0.000002 -0.000000 -28.710260 5.330112 18.268994 35.282001 6.301435 -0.617087 -15.005318 -1.633964 -15.886690 -0.109854 0.000003 0.000002 0.000000 0.000001 -0.000000 -34.320212 -2.274277 -6.767270 36.798129 1.664491 -4.039737 -11.298632 -12.094756 10.227866 1.031096 -0.000003 0.000002 -0.000000 0.000000 -0.000000 
-0.386328 88.038979 45.892731 10.555911 -4.960731 0.229041 5.189945 0.073337 -1.345539 1.911446 -0.569145 -0.186931 0.000000 0.000000 0.000000 -0.161181 -0.970426 0.868122 12.453088 -0.296589 2.274848 -29.759937 0.843138 -5.284012 -0.000000 0.000000 -0.000000 5.875351 -8.055280 20.055964 0.000000 0.000000 0.000000 -34.142565 -16.790070 -15.375133 -0.000000 -124.460090 0.000000 -2.606257 -13.888127 39.182504 28.761459 -24.766946 7.719549 13.199934 30.105165 -41.441227 -17.402007 27.682975 25.682717 -0.000000 -0.000002 0.000001 3.069569 -0.215147 -16.039866 0.003673 0.207615 -2.026407 1.076566 3.386098 -35.266114 0.000000 0.000000 -0.000000 0.875033 5.503080 -21.943368 0.082609 0.981392 -9.622851 0.940112 3.184711 -32.885442 0.000000 0.000000 0.000003 1.474904 7.486894 -18.524899 0.296682 1.842398 -18.294124 0.756989 2.882227 -29.426091 0.000000 0.000000 0.000001 -1.764792 15.538902 -19.028347 0.367412 2.043839 -20.379898 0.354213 2.007978 -20.006550 -0.000001 -0.000001 0.000000 -1.577471 -8.399914 -14.977691 0.000000 0.000000 0.000000 -29.040800 36.106337 26.125866 0.000014 121.325579 -0.000015 0.621398 13.275590 -43.722455 27.195527 26.336499 -7.211321 12.611142 -31.646599 39.702407 -15.700583 -33.857958 -24.842306 0.000000 -0.000001 0.000003 3.355501 0.248066 17.203466 0.003508 -0.180913 2.221363 0.860256 -2.698768 35.354797 -0.000001 0.000001 0.000000 0.928096 -5.183126 25.338445 0.071176 -0.811964 10.018985 0.771287 -2.568906 33.418879 0.000001 0.000001 -0.000000 1.330929 -6.479223 20.917188 0.270808 -1.566477 19.615176 0.650934 -2.376652 30.629864 0.000001 0.000000 0.000000 -2.120927 -15.198083 21.855224 0.301313 -1.649540 20.702204 0.225681 -1.433603 17.891238 -0.000001 0.000001 -0.000003 -27.448604 5.840383 17.893262 32.419196 6.425698 -0.560070 -13.820466 -1.865718 -15.654204 -0.109848 -0.000006 -0.000002 0.000000 -0.000000 0.000000 -32.833710 -2.454690 -6.649899 34.109736 1.424354 -4.038003 -10.362594 -12.016228 10.252677 1.021070 -0.000006 0.000002 0.000000 0.000001 -0.000000 
-0.464826 89.192932 46.223179 10.794903 -4.771463 0.239799 5.077902 0.069519 -1.337136 1.666086 -0.571975 -0.208915 0.000000 0.000000 0.000000 -0.559323 -0.968292 0.843850 12.301276 -0.295254 2.357713 -29.149557 0.800226 -5.276033 -0.000000 -0.000000 -0.000000 5.878851 -8.060530 20.101153 0.000000 0.000000 0.000000 -33.982220 -16.856629 -15.686663 -0.000001 -124.387608 0.000002 -3.851815 -13.938195 39.134067 28.792608 -24.793658 7.783940 13.167952 30.092973 -41.468913 -17.377207 27.661901 25.629424 -0.000001 0.000001 -0.000001 3.081261 -0.191207 -16.120742 0.003525 0.203397 -1.985207 1.076507 3.386017 -35.265127 0.000000 0.000000 -0.000001 0.878238 5.506982 -22.027377 0.078930 0.959450 -9.405674 0.939785 3.184204 -32.879574 0.000000 -0.000000 0.000000 1.484611 7.508880 -18.559306 0.295694 1.839408 -18.263376 0.756984 2.882222 -29.425985 -0.000000 -0.000001 -0.000002 -1.807171 15.526704 -18.984876 0.366251 2.040715 -20.347373 0.353351 2.005593 -19.981807 -0.000001 -0.000001 0.000002 -1.587335 -8.450119 -14.986753 0.000000 0.000000 0.000000 -28.633703 36.187729 26.024556 0.000014 121.147188 -0.000014 -0.032547 14.261433 -43.465312 27.172970 26.344598 -7.200402 12.601736 -31.646923 39.677115 -15.669745 -33.859529 -24.791280 -0.000001 -0.000000 -0.000001 3.366421 0.236502 17.265615 0.003551 -0.182016 2.234966 0.860523 -2.699145 35.360422 -0.000000 -0.000000 -0.000001 0.934618 -5.191293 25.473981 0.071601 -0.814366 10.048939 0.772377 -2.570563 33.443301 -0.000000 -0.000001 0.000001 1.327862 -6.458154 21.018497 0.272227 -1.570450 19.667002 0.652948 -2.380048 30.678406 0.000000 0.000000 -0.000001 -2.102273 -15.197535 21.971395 0.302125 -1.651691 20.730425 0.223922 -1.428149 17.821007 0.000002 0.000001 -0.000000 -26.235011 6.310629 17.538669 29.665482 6.531465 -0.513934 -12.650350 -2.106462 -15.430847 -0.109851 0.000005 -0.000003 -0.000000 -0.000001 0.000000 -31.411535 -2.620269 -6.542385 31.538928 1.179979 -4.034287 -9.442098 -11.938899 10.272137 1.011049 -0.000002 0.000001 -0.000000 0.000002 -0.000000 
-0.540622 90.230736 46.507488 10.969439 -4.582474 0.253411 4.985747 0.065045 -1.328321 1.454990 -0.575846 -0.227307 0.000000 0.000000 0.000000 -0.918374 -0.967314 0.822786 12.149651 -0.303946 2.434267 -28.491244 0.716114 -5.283605 -0.000000 -0.000000 -0.000000 5.881368 -7.946039 20.121316 0.000000 0.000000 0.000000 -33.764388 -17.243356 -15.928116 -0.000001 -124.230896 0.000001 -5.100337 -13.844768 39.465663 28.512980 -24.637894 7.851861 13.061361 30.072715 -41.232684 -17.303774 27.711732 25.495633 0.000001 0.000002 0.000000 3.077369 -0.164142 -16.281197 0.004282 0.224187 -2.188232 1.081491 3.393039 -35.349388 0.000000 0.000000 -0.000001 0.883468 5.514449 -22.140953 0.079767 0.964482 -9.455462 0.940441 3.185216 -32.891380 0.000000 0.000001 0.000000 1.509848 7.560502 -18.676275 0.301353 1.856464 -18.438881 0.761236 2.889733 -29.510427 -0.000000 -0.000001 0.000002 -1.778061 15.533302 -19.108689 0.371052 2.053606 -20.481726 0.357225 2.016220 -20.092286 -0.000001 -0.000000 0.000003 -1.601077 -8.534189 -15.002516 0.000000 0.000000 0.000000 -28.345504 36.296868 26.002353 -0.000015 120.828860 0.000015 -0.558087 15.208087 -43.049074 27.151388 26.352610 -7.190627 12.592172 -31.647070 39.651775 -15.638975 -33.859590 -24.740077 0.000000 0.000001 -0.000002 3.377259 0.225135 17.325639 0.003582 -0.182833 2.244906 0.860662 -2.699334 35.363359 0.000001 0.000001 -0.000000 0.941035 -5.199275 25.607122 0.071983 -0.816527 10.075864 0.773391 -2.572084 33.465741 -0.000000 0.000001 -0.000001 1.324658 -6.437263 21.117599 0.273542 -1.574121 19.714964 0.654827 -2.383222 30.723704 -0.000002 -0.000003 -0.000001 -2.084221 -15.196763 22.085099 0.302804 -1.653480 20.753805 0.222104 -1.422481 17.747886 -0.000002 0.000001 -0.000001 -25.072175 6.740991 17.206964 27.091669 6.617194 -0.479831 -11.532232 -2.344584 -15.220902 -0.109847 -0.000002 -0.000001 -0.000000 -0.000001 -0.000000 -30.071940 -2.772337 -6.453971 29.160765 0.950270 -4.029088 -8.569865 -11.863445 10.280450 1.001028 0.000001 0.000002 -0.000000 -0.000001 -0.000000 
